<?xml version="1.0" encoding="UTF-8"?>
<!DOCTYPE svg  PUBLIC '-//W3C//DTD SVG 1.1//EN'  'http://www.w3.org/Graphics/SVG/1.1/DTD/svg11.dtd'>
<svg width="1112pt" height="952pt" version="1.1" viewBox="0 0 1112 952" xmlns="http://www.w3.org/2000/svg">
<path d="m480.18 236.68c10.83-16 27.39-27.94 45.84-33.57-2.76 2.61-5.69 5.07-8.06 8.05 10.04-1.16 20.44-0.11 29.73 4.01 0.98 8.65 2.03 17.3 2.96 25.96 0.6-0.53 0.9-1.19 0.92-1.99 0.86-8 1.81-15.99 2.72-23.99 9.32-4.13 19.74-5.17 29.81-3.96-2.41-3-5.4-5.44-8.15-8.11 18.11 5.7 34.56 17.2 45.32 32.94-3.23-1.54-6.22-3.55-9.6-4.74 4.11 8.99 6.34 18.9 5.51 28.82-7.64 4.72-16.73 7.29-24.49 11.97 8.78-1.37 17.48-3.37 26.2-5.16 7.16 7.47 10.81 17.36 13.47 27.15 1.64-2.99 3.14-6.05 4.33-9.25 1.27 18.63-5.87 37.03-16.43 52.14 0.18-3.4 0.99-6.72 1.35-10.1-2.81 1.73-5.07 4.2-7.87 5.94-5.53 3.84-11.8 6.53-18.34 8.09-6.26-6.6-12.19-13.51-18.56-20.01 3.52 8.36 8.88 15.86 12.97 23.98-5.22 8.81-13.11 15.72-21.94 20.77 3.47 0.62 6.97 1.06 10.45 1.64-17.58 6.12-36.93 5.68-54.63 0.28 3.33-1.01 6.81-1.27 10.21-1.89-8.63-5.34-16.84-12.01-21.76-21.08 4.32-7.89 9.41-15.44 12.97-23.7-6.33 6.49-12.32 13.32-18.47 19.98-7.1-1.52-13.8-4.68-19.67-8.91-2.28-1.6-4.22-3.65-6.63-5.04 0.39 3.45 1.06 6.85 1.63 10.28-11.47-15.2-17.32-34.17-17.37-53.14 1.71 3.34 3.21 6.78 4.99 10.1 2.56-9.86 6.35-19.64 13.37-27.24 8.78 1.63 17.46 3.93 26.33 5.06-7.89-4.21-16.24-7.59-24.37-11.32-1.3-10.04 1.25-20.21 5.37-29.33-3.58 1.36-6.98 3.16-10.11 5.37m32.68 36.5c4.84 14.9 9.75 29.77 14.47 44.7 15.79 0.17 31.6 0.24 47.39-0.03 4.58-14.97 9.62-29.79 14.39-44.69-12.7-9.23-25.39-18.47-38.1-27.68-12.76 9.18-25.45 18.44-38.15 27.7z" fill="#fff"/>
<path d="m523.18 1.34c2.35-0.18 5.15-0.95 7.29 0.25 0.99 2 1.15 4.26 1.59 6.41 6.57 35.68 13.33 71.34 19.85 107.02 0.75 2.55-1.8 4-3.95 4.12-34.08 6.1-65.18 26.82-84.05 55.83-1.97 2.72-3.26 5.89-5.43 8.47-1.34 1.44-3.27 0.58-4.68-0.23-32.04-18.64-64.09-37.27-96.15-55.89-1.3-0.8-2.77-1.68-2.99-3.35 0.75-3.26 3.01-5.87 4.59-8.75 35.61-58.61 96.64-100.83 163.93-113.88z" fill="#931c80"/>
<path d="m579.68 28.82c65.29-4.55 132.08 18.03 180.95 61.58 1.55 1.68 0.46 4.01-0.92 5.37-24.49 28.21-48.91 56.48-73.37 84.7-1.41 2-4.24 1.47-5.67-0.18-27.92-24.63-66.94-36.1-103.73-30.22-2.06 0.63-4.93-0.03-5.06-2.58-5.54-37.11-10.98-74.24-16.48-111.36-0.49-1.78-0.15-4.08 1.86-4.7 7.39-1.41 14.92-2.04 22.42-2.61z" fill="#e10b17"/>
<path d="m313.23 126.13c1.92-1.14 3.92 0.24 5.66 1.06 32.49 17.5 65.06 34.88 97.55 52.4 3.03 1.12 2.09 4.54 0.69 6.61-17.47 32.4-19.83 72.47-6.22 106.69 1.34 2.18 0.71 5.38-2.07 5.96-34.56 13.33-69.13 26.63-103.69 39.97-1.93 0.91-5.04 1.54-5.91-1.1-14.55-36.17-19.85-75.87-16.28-114.64 3.09-33.02 12.85-65.39 28.52-94.61 0.43-0.9 1.01-1.68 1.75-2.34z" fill="#02509b"/>
<path d="m752.42 132.38c1.14-0.69 2.85-0.65 3.86 0.32 53.62 49.42 83.31 123.58 78.51 196.35-0.51 2.17-3.01 2.4-4.85 2.2-37.36-1.85-74.73-3.54-112.08-5.48-2.55 0.2-3.37-2.72-3-4.74 2.1-37.24-13.25-74.97-40.64-100.26-2.04-1.4-2.3-4.25-0.32-5.83 16.52-17.47 33.08-34.89 49.61-52.34 9.69-10.03 19.01-20.43 28.91-30.22z" fill="#ef8704"/>
<g fill="#1e1e1c">
<path d="m541.06 192.13c15.83-1.53 32.08 0.62 46.72 6.97 18.83 7.99 34.87 22.36 44.94 40.15 9.6 16.79 13.72 36.61 11.73 55.83-1.59 16.26-7.6 32.06-17.17 45.3-11.57 16.14-28.35 28.52-47.28 34.59-16.69 5.43-34.9 6.05-51.92 1.77-17.22-4.24-33.1-13.61-45.26-26.49-14.01-14.65-23.08-33.98-25.24-54.15-2.47-21.5 2.76-43.84 14.71-61.91 15.1-23.36 41.05-39.34 68.77-42.06m-60.88 44.55c3.13-2.21 6.53-4.01 10.11-5.37-4.12 9.12-6.67 19.29-5.37 29.33 8.13 3.73 16.48 7.11 24.37 11.32-8.87-1.13-17.55-3.43-26.33-5.06-7.02 7.6-10.81 17.38-13.37 27.24-1.78-3.32-3.28-6.76-4.99-10.1 0.05 18.97 5.9 37.94 17.37 53.14-0.57-3.43-1.24-6.83-1.63-10.28 2.41 1.39 4.35 3.44 6.63 5.04 5.87 4.23 12.57 7.39 19.67 8.91 6.15-6.66 12.14-13.49 18.47-19.98-3.56 8.26-8.65 15.81-12.97 23.7 4.92 9.07 13.13 15.74 21.76 21.08-3.4 0.62-6.88 0.88-10.21 1.89 17.7 5.4 37.05 5.84 54.63-0.28-3.48-0.58-6.98-1.02-10.45-1.64 8.83-5.05 16.72-11.96 21.94-20.77-4.09-8.12-9.45-15.62-12.97-23.98 6.37 6.5 12.3 13.41 18.56 20.01 6.54-1.56 12.81-4.25 18.34-8.09 2.8-1.74 5.06-4.21 7.87-5.94-0.36 3.38-1.17 6.7-1.35 10.1 10.56-15.11 17.7-33.51 16.43-52.14-1.19 3.2-2.69 6.26-4.33 9.25-2.66-9.79-6.31-19.68-13.47-27.15-8.72 1.79-17.42 3.79-26.2 5.16 7.76-4.68 16.85-7.25 24.49-11.97 0.83-9.92-1.4-19.83-5.51-28.82 3.38 1.19 6.37 3.2 9.6 4.74-10.76-15.74-27.21-27.24-45.32-32.94 2.75 2.67 5.74 5.11 8.15 8.11-10.07-1.21-20.49-0.17-29.81 3.96-0.91 8-1.86 15.99-2.72 23.99-0.02 0.8-0.32 1.46-0.92 1.99-0.93-8.66-1.98-17.31-2.96-25.96-9.29-4.12-19.69-5.17-29.73-4.01 2.37-2.98 5.3-5.44 8.06-8.05-18.45 5.63-35.01 17.57-45.84 33.57z"/>
<path d="m512.86 273.18c12.7-9.26 25.39-18.52 38.15-27.7 12.71 9.21 25.4 18.45 38.1 27.68-4.77 14.9-9.81 29.72-14.39 44.69-15.79 0.27-31.6 0.2-47.39 0.03-4.72-14.93-9.63-29.8-14.47-44.7z"/>
</g>
<path d="m383.42 324.43c2.79-1.09 4.21 2.12 5.04 4.17 14.65 33.83 44.77 60.4 80.06 70.98 2.4 0.31 4.06 2.65 2.94 4.98-11.15 35.76-22.23 71.56-33.47 107.29-0.38 2.37-2.72 3.71-4.94 2.7-51.16-15.45-96.85-48.14-128.22-91.37-11.1-15.3-20.66-31.79-27.89-49.26-1.12-2.35 1.11-4.24 3.13-4.88 34.47-14.8 68.84-29.9 103.35-44.61z" fill="#198ccd"/>
<path d="m680.29 339.42c1.33-1.04 3.13-0.51 4.68-0.5 36.37 2.85 72.73 5.72 109.1 8.5 2.2-0.04 5.29 0.67 4.93 3.54-4.43 72.53-43.18 141.92-102.21 184.2-1.92 1.51-4.4 0.28-5.43-1.63-21-28.64-42-57.28-62.99-85.92-1.38-1.94-2.99-3.74-4.02-5.89-0.85-2.43 1.6-3.81 3.2-5.04 29.37-21.56 48.66-56.25 51.36-92.6 0.23-1.58-0.02-3.56 1.38-4.66z" fill="#fdea14"/>
<path d="m587.49 420.47c1.93-1.61 4.6-0.61 5.6 1.54 20.47 30.48 40.93 60.96 61.4 91.44 1.1 1.78 3.08 4.28 1.02 6.16-59.68 41.79-138.41 54.42-208.36 34.39-2.33-0.37-2.92-3.1-2.13-5 9.43-34.31 18.93-68.59 28.37-102.89 0.63-2.27 1.13-4.6 2.08-6.76 1.42-2.35 4.41-1.07 6.51-0.58 35.61 9.76 75.17 2.64 105.51-18.3z" fill="#009541"/>
<g>
<path d="m577.38 607.58c3.91-1.28 8.26-1.15 12.17 0.08 7.52 2.59 12.96 10.39 12.23 18.41-0.16 9.69-9.1 18.11-18.78 17.73-8.55 0.41-16.42-6.4-17.85-14.72-1.99-8.91 3.53-18.7 12.23-21.5z"/>
<path d="m278.43 751.9c0.24-42.07-0.13-84.14 0.18-126.2 10.92 0.08 21.84 0.1 32.76-0.01 0.31 32.51 0.03 65.04 0.14 97.56 13.15-0.03 26.3 0.04 39.45-0.04 0.09 9.59 0.01 19.19 0.04 28.79-24.19-0.07-48.39 0.14-72.57-0.1z"/>
<path d="m482 625.75c10.93 0.04 21.86-0.09 32.79 0.07-0.08 32.47-0.02 64.95-0.03 97.42 13.2-0.04 26.4 0.12 39.6-0.08 0.33 9.6 0.05 19.23 0.14 28.84h-72.5v-126.25z"/>
<path d="m395.82 649.76c9-1.68 18.78-1.23 27 3.14 4.01 2.08 7.5 5 10.95 7.9-0.03-3.34-0.03-6.69 0-10.03 10.15-0.03 20.31-0.04 30.46 0 0.04 33.74 0.01 67.48 0.02 101.23-10.35-0.03-20.7 0.06-31.04-0.05 0.03-3 0.07-6.01 0.02-9.01-6.41 5.23-13.84 9.49-22.09 10.86-13.53 2.26-28.32-1.07-38.7-10.29-9.07-7.99-14.1-19.76-15.58-31.58-1.97-13.51 0.24-27.86 7.57-39.51 6.87-11.33 18.28-20.09 31.39-22.66m7.51 28.79c-6.78 2.03-12.26 7.58-14.54 14.24-2.75 8.01-1.55 17.28 3.11 24.34 3.07 4.7 8.09 8.08 13.61 9.16 8.37 1.69 17.58-1.27 23.26-7.69 9.03-9.97 7.8-27.32-2.56-35.89-6.24-5.23-15.2-6.52-22.88-4.16z"/>
<path d="m630.71 656.75c10.47-7.93 24.76-9.72 37.23-6.15 6.77 1.94 12.4 6.41 17.29 11.33 0.03-3.68 0.04-7.36-0.05-11.03 9.72-0.38 19.46 0.03 29.19-0.22 0.31 24.78 0.04 49.57 0.13 74.35-0.15 11.59 1.13 23.74-3.72 34.64-5.22 13.06-17.49 22.25-30.89 25.67-15.78 3.98-33.36 2.67-47.63-5.51-10.19-5.7-17.74-16.14-19.07-27.85 11.49 0.09 22.97-0.1 34.46 0.1 2.32 4.2 6.42 7.52 11.33 7.94 7.78 0.9 17.05-0.4 22.15-6.98 3.6-4.49 2.44-10.51 2.63-15.81-9.47 7.97-22.09 13.05-34.59 11.1-10.86-1.24-20.92-7.26-27.5-15.93-8.77-11.37-11.66-26.45-10.01-40.51 1.57-13.52 7.93-26.93 19.05-35.14m26.76 18.98c-6.08 1.19-11.21 5.6-13.73 11.19-5.06 10.82-3.21 26.03 7.37 32.89 8.85 5.36 21.44 3.38 28.19-4.5 7.54-8.38 7.81-21.85 1.7-31.09-4.97-7.54-15.01-10.22-23.53-8.49z"/>
<path d="m750.58 656.61c10-6.84 22.79-9.21 34.64-6.88 7.6 1.58 14.19 6.07 19.77 11.31 0-3.43 0.01-6.86 0.01-10.29 10.08 0.01 20.16-0.03 30.24 0.02 0.02 33.74 0.01 67.49 0.01 101.23h-30.74c-0.02-3.26-0.1-6.51 0.13-9.75-16.99 17.23-48.05 15.93-64.21-1.77-10.17-11.15-13.7-26.87-13.07-41.6 0.82-16.6 9.24-33 23.22-42.27m23.73 21.99c-6.82 2.1-12.32 7.67-14.48 14.45-3.81 11.35 0.4 25.9 11.52 31.49 10.06 4.9 23.22 1.42 29.84-7.52 7.47-9.99 6.05-25.62-3.41-33.86-6.22-5.7-15.58-7.04-23.47-4.56z"/>
<path d="m567.76 650.78c10.2-0.11 20.41 0.07 30.61-0.1 0.37 33.72-0.09 67.46 0.23 101.18-10.28 0.32-20.57 0.05-30.85 0.14 0.01-33.74-0.02-67.48 0.01-101.22z"/>
</g>
<g fill="#e30b18">
<path d="m102.39 802.62c-7.75-14.06-7.32-32.71 2.14-45.84 1.6 8.72 6.77 16.06 11.03 23.63 8.86 15.45 17.88 30.81 26.66 46.31 3.42 5.85 4.68 12.56 5.52 19.19 14.44 3.69 28.56 9.62 40.31 18.91 8.48 6.84 15.87 16.17 17.16 27.31 1.5 10.82-3.58 21.45-10.96 29.11-10.52 10.92-24.54 17.78-38.8 22.43-12.14 3.97-24.81 6.13-37.52 7.26-7.61 1.12-15.27-0.49-22.9 0.42-15.87-0.73-31.73-3.35-46.8-8.48-13.84-4.87-27.47-11.79-37.43-22.82-6.03-6.53-10-15.11-10.3-24.05 0.21-11.23 6.44-21.47 14.7-28.72 12.27-10.84 27.77-17.48 43.52-21.42-0.04 8.16 1.71 16.42 5.77 23.56 10.89 18.82 21.76 37.65 32.61 56.5 2.26 3.81 3.58 8.05 4.75 12.3 8.91-13.56 9.33-32.08 1.03-46.02-6.87-11.83-13.67-23.7-20.52-35.53-3.66-6.52-8.07-12.8-9.67-20.23-3.05-12.05-0.6-25.03 5.88-35.55 1.5 4.22 2.53 8.65 4.85 12.54 13.02 22.66 26.13 45.26 39.17 67.9 2.21 3.89 3.85 8.11 4.71 12.51 8.97-13.03 9.48-31.13 1.79-44.88-8.83-15.49-17.84-30.87-26.7-46.34z"/>
<path d="m251.88 822.98c6.78-8.41 17.59-12.27 28.01-13.58 15.63-1.82 31.62-0.1 46.59 4.69-0.2 6.72-1.51 13.44-3.85 19.75-8.49-3.28-17.56-4.84-26.6-5.51-7.9-0.33-16.57-0.32-23.31 4.43-6.52 4.52-7.56 14.45-3.24 20.83 3.66 5.49 9.81 8.54 15.59 11.32 12.76 5.76 26.6 10.23 37.07 19.94 14.85 13.4 14.24 40.26-1.63 52.63-9.41 7.53-21.75 9.99-33.53 10.47-13.57 0.34-27.45-0.88-40.18-5.9-0.96-0.63-2.7-0.67-2.98-1.94 0.15-6.49 1.5-12.9 3.55-19.04 14.24 5.94 30.04 8.92 45.43 6.71 6.05-1.05 12.81-3.35 15.88-9.12 3.8-7.11 1.21-16.54-5.24-21.2-13.68-10.32-31.55-13.08-44.96-23.83-6.64-5.07-11.42-12.57-12.86-20.83-1.72-10.19-0.49-21.58 6.26-29.82z"/>
<path d="m564.9 813.15c6.93-1.86 14.06-2.86 21.24-3.01 0.21 12.06 0.14 24.14 0.03 36.2 11.16 0.34 22.34 0.1 33.51 0.12-0.37 6.11-0.87 12.23-1.93 18.28-10.51 0.12-21.04-0.16-31.55 0.14 0.16 16.3-0.07 32.59 0.11 48.89 0.14 5.56 2.68 11.76 8.28 13.79 7.95 2.85 16.66 0.87 24.49-1.49-0.78 6.02-0.88 12.44-2.83 18.14-8.3 3.37-17.61 3.58-26.38 2.39-8-1.12-16.03-5.11-20.24-12.25-4.76-7.54-4.84-16.75-4.89-25.36 0.12-31.94-0.2-63.9 0.16-95.84z"/>
<path d="m909.99 813.08c6.81-2.26 14.03-2.82 21.17-2.9 0.21 44.93 0.04 89.88 0.08 134.82-6.61-0.08-13.22 0.17-19.82-0.15-0.24-3.95-0.72-7.88-0.92-11.82-3.98 6.22-9.99 11.37-17.32 13.04-12.72 2.93-27.21 0.53-37.17-8.29-9.35-8.18-13.75-20.62-14.94-32.71-0.92-11.48-0.4-23.39 4.01-34.17 4.03-10.13 12.17-18.5 22.24-22.71 13.43-5.61 28.5-5.93 42.69-3.5-0.02-10.54 0-21.07-0.02-31.61m-30.81 51.11c-7.85 3.15-13.26 10.67-15.18 18.75-2.04 8.36-2.06 17.22-0.34 25.64 1.53 7.4 5.62 14.74 12.56 18.27 9.83 4.86 22.01 3.28 31.09-2.55 1.09-0.81 2.98-1.47 2.68-3.19-0.08-19.24 0.21-38.5-0.15-57.74-10.09-1.7-20.94-3.35-30.66 0.82z"/>
<path d="m358.68 857.66c9.03-9.59 22.43-13.55 35.26-14.24 14.05-0.67 28.33 0.65 41.74 5.08 0.21 32.14-0.04 64.29 0.12 96.44-6.54 0.09-13.08 0.12-19.61-0.02-0.35-3.6-0.66-7.21-1.08-10.79-3.9 5.14-8.92 9.64-15.25 11.46-14.6 4.23-32.01 0.54-42.16-11.21-9.34-10.75-12.16-25.56-11.97-39.42 0.15-13.32 3.47-27.45 12.95-37.3m23.73 7.74c-7.53 3.82-12.17 11.69-13.78 19.77-1.84 9.41-1.63 19.46 1.67 28.53 2.25 6.43 7.19 12.01 13.68 14.33 10.17 3.59 21.84 1.25 30.43-5.07 0.18-20.08 0.06-40.15 0.06-60.23-10.62-1.47-22.24-2.53-32.06 2.67z"/>
<path d="m458.69 848.74c18.27-4.43 37.42-7.34 56.14-4.06 8.92 1.61 18.09 5.44 23.4 13.15 5.32 7.55 5.99 17.19 5.78 26.14-0.02 20.34-0.01 40.69-0.01 61.03-7.15 0.01-14.3-0.03-21.45 0.03-0.12-20.35-0.04-40.69-0.04-61.03 0.13-5.16-0.36-10.66-3.4-15.01-2.44-3.52-6.56-5.36-10.61-6.27-9.4-2.05-19.09-1.03-28.5 0.36v81.92c-7.08-0.01-14.16 0.01-21.24-0.01-0.06-32.08 0.08-64.17-0.07-96.25z"/>
<path d="m637.74 858.68c9.49-10.84 24.34-14.94 38.29-15.38 13.49-0.24 27.29 0.77 40.04 5.52-0.16 32.06-0.02 64.12-0.07 96.18-6.61-0.04-13.21 0.09-19.8-0.08-0.29-3.68-0.68-7.35-1.1-11-3.97 5.92-9.96 10.51-16.96 12.16-13.32 3.13-28.6 0.14-38.52-9.67-9.11-8.97-12.95-21.93-13.69-34.4-0.95-15.09 1.44-31.63 11.81-43.33m24.65 6.73c-7.72 3.96-12.41 12.13-13.9 20.47-1.77 9.95-1.4 20.62 2.7 29.98 2.84 6.52 8.82 11.59 15.81 13.06 9.47 2.21 19.65-0.29 27.45-5.96 0.12-20.06-0.01-40.13 0.06-60.19-10.62-1.56-22.28-2.56-32.12 2.64z"/>
<path d="m738.69 848.73c13.14-3.26 26.65-5.44 40.21-5.49 11.92 0.38 24.92 1.54 34.53 9.36 7.51 6.06 10.37 16.01 10.55 25.33 0.04 22.35 0.01 44.71 0.02 67.07-7.09-0.01-14.16 0-21.24 0-0.02-18.02-0.02-36.04 0-54.06-0.22-6.26 0.35-12.79-1.91-18.75-1.69-4.76-6.18-7.91-10.94-9.12-9.79-2.54-20.04-1.43-29.91 0.01v81.92h-21.24c-0.07-32.09 0.08-64.18-0.07-96.27z"/>
<path d="m986.02 843.88c10.93-1.46 22.62-0.63 32.49 4.64 7.74 4.06 13.66 11.17 16.68 19.34 4.43 11.41 3.64 23.94 2.27 35.86-22.51 0.12-45.02-0.05-67.53 0.08 1.24 6.96 3.87 14.12 9.53 18.71 6.81 5.58 16.11 6.7 24.63 6.39 10.73-0.38 21.28-3.02 31.13-7.24-0.76 6.24-1.79 12.45-3.09 18.6-0.16 1.32-1.87 1.41-2.78 1.99-9.6 3.84-20.03 5.16-30.32 5.01-9.12-0.26-18.43-1.65-26.65-5.81-7.75-3.74-14.23-10.06-18.07-17.76-5.49-10.65-6.59-22.97-5.94-34.77 0.7-10.97 3.67-22.24 10.76-30.88 6.53-8.18 16.65-12.83 26.89-14.16m-3.47 19.61c-8.59 3.91-12.14 13.71-12.95 22.51 15.83 0 31.65 0.01 47.48-0.01-0.28-7.27-2.08-15.24-8.06-19.98-7.37-5.81-18.05-6.07-26.47-2.52z"/>
<path d="m1056.5 848.59c17.62-5.35 36.33-6.26 54.6-4.61 0.8 6.15-0.46 12.4-1.77 18.4-10.36-0.93-21.06-1.56-31.26 0.58-0.17 27.34-0.02 54.69-0.07 82.04-7.2-0.07-14.4 0.14-21.59-0.12 0.19-32.09 0.03-64.19 0.09-96.29z"/>
</g>
</svg>
