<?xml version="1.0" encoding="UTF-8"?>
<svg width="301pt" height="73pt" version="1.1" viewBox="0 0 301 73" xmlns="http://www.w3.org/2000/svg">
<g fill="#e5c823">
<path d="m36.137 0h0.65234c10.258 0.097656 20.363 4.7109 27.047 12.523 5.6289 6.4258 8.8711 14.902 8.9219 23.453 0.03125 11.68 0.003907 23.359 0.015626 35.039-6.0625 0.015625-12.121 0.015625-18.184 0.007813-0.019532-11.68 0.019531-23.363-0.019532-35.035-0.023437-5.668-2.8984-11.254-7.543-14.504-4.4492-3.2461-10.445-4.1953-15.695-2.5703-7.3398 2.1875-12.77 9.4336-12.777 17.113-0.019532 11.695-0.0625 23.395 0.019531 35.09-6.0586 0.16797-12.133 0.046874-18.195 0.0625-0.035156-11.723-0.023437-23.449-0.003906-35.172 0.023438-9.8008 4.3047-19.461 11.461-26.125 6.4922-6.1875 15.348-9.7266 24.301-9.8828z"/>
<path d="m115.93 0h1.9375c8.5352 0.59375 16.867 4.2773 22.723 10.586 7.1641 7.5391 10.707 18.078 10.574 28.398-0.019531 1.8477-0.42578 3.6523-0.94922 5.4141-17.168 0-34.34-0.019532-51.508 0.007812 2.3633 4.3945 5.7695 8.4805 10.426 10.52 4.1992 1.9219 8.9766 1.5078 13.434 1 4.9336-0.625 9.3281-3.1055 13.539-5.5898 3.0547 4.6758 6.1914 9.2969 9.2148 13.988-7.2891 5.6484-16.617 7.8125-25.652 8.3789-14.52 1.2539-29.742-6.2344-36.691-19.234-4.3398-7.9766-5.2148-17.594-3.0938-26.359 2.0977-8.6719 7.6016-16.48 15.148-21.234 6.1875-3.9922 13.582-5.7852 20.898-5.875m-17.812 29.285c11.145 0.019532 22.293 0.023438 33.438 0-2.7188-6.832-9.9336-11.48-17.27-11.145-6.9844 0.089844-13.305 4.9219-16.168 11.145z"/>
<path d="m189.75 0h2.6094c10.816 0.19922 21.391 5.4688 27.973 14.078 5.4766 7 8.2344 16.062 7.5508 24.926-0.52734 7.5078-3.4961 14.805-8.3125 20.566-5.3086 6.4062-12.871 10.934-21.055 12.453-7.8359 1.5156-16.164 0.30469-23.238-3.3867-7.6094-3.9023-13.742-10.594-16.98-18.512-2.8711-6.9336-3.457-14.758-1.7578-22.059 1.8398-7.9414 6.4766-15.18 12.867-20.215 5.7734-4.6406 12.992-7.2539 20.344-7.8516m-0.039062 18.398c-5.6328 0.61719-10.855 4.0938-13.613 9.0508-3.0195 5.2578-3.1016 12.066-0.21875 17.402 3.7227 7.2852 12.75 11.234 20.609 8.9453 4.9141-1.2969 9.168-4.8125 11.414-9.375 2.3789-4.7148 2.5117-10.488 0.39062-15.32-2.9922-7.1328-10.914-11.715-18.582-10.703z"/>
<path d="m231.08 0h3.3281c2.7891 0.5625 5.6445 0.75391 8.3867 1.5625 9.3047 2.4531 17.773 8.2031 23.152 16.238 7.6328-11.375 21.348-17.824 34.887-17.766 0 6.0234 0.015625 12.043-0.007812 18.07-5.0977 0.050781-10.215 1.8164-14.066 5.1992-3.9023 3.3711-6.3711 8.4766-6.1211 13.68 0.14062 4.832 2.6289 9.4297 6.3164 12.492 3.8281 3.2852 8.875 4.9023 13.879 4.9766 0.003907 6.0781 0.011719 12.148-0.003906 18.227-13.574 0.039062-27.309-6.4648-34.883-17.93-7.5898 11.43-21.324 17.891-34.875 17.766-0.007812-6.0664-0.011718-12.133 0-18.199 4.0234-0.097656 8.0781-1.0742 11.516-3.2305 4.918-2.9453 8.457-8.3203 8.6641-14.117 0.28906-5.207-2.1289-10.359-6.0469-13.727-3.8633-3.4141-9.0312-5.0742-14.133-5.1367 0-6.0352-0.019531-12.066 0.007813-18.105z"/>
</g>
</svg>
